<svg width="45" height="57" viewBox="0 0 45 57" fill="none" xmlns="http://www.w3.org/2000/svg">
<path d="M22.4888 0C17.5895 0 13.6339 6.62619 13.6339 18.0513C13.6339 30.36 17.2682 38.9941 19.8986 43.6525H25.1393C27.7496 39.0142 31.384 30.36 31.384 18.0313C31.3639 6.60611 27.3681 0 22.4888 0Z" fill="#165DFC"/>
<path d="M15.8828 43.6525H16.1237C13.4331 38.3716 10.3007 29.7576 10.3007 18.0513C10.3007 10.6019 11.887 4.67847 14.6178 0.98387C6.08405 3.21268 0 9.17625 0 18.0714C0 30.9824 8.77468 39.2953 15.3607 43.7128C15.5414 43.6927 15.7021 43.6525 15.8828 43.6525ZM30.2596 0.963791C33.2715 5.05998 34.6771 11.5657 34.6771 18.0513C34.6771 29.7777 31.5648 38.3917 28.8741 43.6726H29.1151C29.2556 43.6726 29.3761 43.7128 29.5167 43.7128C36.1027 39.2351 44.9979 30.8419 44.9979 18.0513C44.9778 9.11601 38.8335 3.15244 30.2596 0.963791ZM29.095 46.9656H15.8627C14.3969 46.9656 13.2122 48.1503 13.2122 49.6161V53.5918C13.2122 55.0576 14.3969 56.2423 15.8627 56.2423H29.095C30.5608 56.2423 31.7455 55.0576 31.7455 53.5918V49.6161C31.7455 48.1503 30.5608 46.9656 29.095 46.9656Z" fill="#165DFC"/>
</svg>
